<!-- The plates, lifted whole from design/collection-redesign so the two
     canvases draw the same fictional collection, plus one new plant
     (pl-philodendron) for the run this feature exists to show. -->
<svg width="0" height="0" aria-hidden="true" style="position:absolute">
  <defs>
    <path id="lf" d="M0 0C7-13 24-15 32-6 26 5 9 9 0 0Z" />
    <path id="hr" d="M0 0C-10-6-16-16-12-24-8-31-2-30 0-26 2-30 8-31 12-24 16-16 10-6 0 0Z" />
    <path id="ar" d="M0 0-8-11-5-27 0-33 5-27 8-11Z" />
    <path id="ov" d="M0 0C-9-5-11-16-8-24-5-31 5-31 8-24 11-16 9-5 0 0Z" />
    <path id="bl" d="M0 0C3-14 3-30 0-42-3-30-3-14 0 0Z" />
    <path id="pot" d="M38 54h24l-3.2 17a3 3 0 0 1-3 2.6H44.2a3 3 0 0 1-3-2.6Z" />
    <rect id="rim" x="35.2" y="49" width="29.6" height="6.2" rx="2" />

    <symbol id="pl-monstera" viewBox="0 0 100 76">
      <rect width="100" height="76" fill="oklch(0.928 0.016 96)" />
      <rect y="60" width="100" height="16" fill="oklch(0.878 0.020 88)" />
      <g stroke="oklch(0.478 0.052 142)" stroke-width="1.4" fill="none" stroke-linecap="round">
        <path d="M50 54C46 40 38 30 26 22" /><path d="M50 54C54 38 62 28 74 20" />
        <path d="M50 54C50 40 49 28 49 16" /><path d="M50 54C44 44 34 38 22 38" />
      </g>
      <use href="#lf" transform="translate(26 22) rotate(196) scale(0.82)" fill="oklch(0.415 0.072 152)" />
      <use href="#lf" transform="translate(74 20) rotate(-28) scale(0.80)" fill="oklch(0.545 0.090 148)" />
      <use href="#lf" transform="translate(49 16) rotate(-84) scale(0.74)" fill="oklch(0.462 0.082 150)" />
      <use href="#lf" transform="translate(22 38) rotate(170) scale(0.66)" fill="oklch(0.585 0.086 146)" />
      <use href="#pot" fill="oklch(0.648 0.090 47)" /><use href="#rim" fill="oklch(0.714 0.080 47)" />
    </symbol>

    <symbol id="pl-anthurium" viewBox="0 0 100 76">
      <rect width="100" height="76" fill="oklch(0.905 0.020 74)" />
      <rect y="62" width="100" height="14" fill="oklch(0.852 0.024 68)" />
      <g stroke="oklch(0.430 0.048 148)" stroke-width="1.3" fill="none" stroke-linecap="round">
        <path d="M50 54C44 46 38 40 32 34" /><path d="M50 54C56 46 62 40 68 34" /><path d="M50 54 50 30" />
      </g>
      <use href="#hr" transform="translate(32 34) rotate(-24) scale(0.92)" fill="oklch(0.352 0.058 154)" />
      <use href="#hr" transform="translate(68 34) rotate(22) scale(0.88)" fill="oklch(0.405 0.062 152)" />
      <use href="#hr" transform="translate(50 30) scale(1.0)" fill="oklch(0.318 0.052 156)" />
      <use href="#pot" fill="oklch(0.800 0.012 80)" /><use href="#rim" fill="oklch(0.856 0.010 82)" />
    </symbol>

    <symbol id="pl-alocasia" viewBox="0 0 100 76">
      <rect width="100" height="76" fill="oklch(0.938 0.012 108)" />
      <rect y="58" width="100" height="18" fill="oklch(0.888 0.016 100)" />
      <g stroke="oklch(0.560 0.060 140)" stroke-width="1.6" fill="none" stroke-linecap="round">
        <path d="M50 54C44 42 40 32 36 24" /><path d="M50 54C56 42 60 32 64 22" /><path d="M50 54 50 18" />
      </g>
      <use href="#ar" transform="translate(36 24) rotate(-18) scale(0.95)" fill="oklch(0.372 0.062 150)" />
      <use href="#ar" transform="translate(64 22) rotate(16) scale(0.92)" fill="oklch(0.448 0.072 148)" />
      <use href="#ar" transform="translate(50 18) scale(1.02)" fill="oklch(0.402 0.066 152)" />
      <use href="#pot" fill="oklch(0.452 0.014 70)" /><use href="#rim" fill="oklch(0.520 0.014 72)" />
    </symbol>

    <symbol id="pl-ficus" viewBox="0 0 100 76">
      <rect width="100" height="76" fill="oklch(0.912 0.018 84)" />
      <rect y="61" width="100" height="15" fill="oklch(0.862 0.022 78)" />
      <path d="M50 54 50 14" stroke="oklch(0.560 0.038 92)" stroke-width="2.2" fill="none" stroke-linecap="round" />
      <use href="#ov" transform="translate(50 46) rotate(-42) scale(0.92)" fill="oklch(0.398 0.070 152)" />
      <use href="#ov" transform="translate(50 40) rotate(40) scale(0.88)" fill="oklch(0.505 0.080 148)" />
      <use href="#ov" transform="translate(50 30) rotate(-22) scale(1.0)" fill="oklch(0.352 0.062 154)" />
      <use href="#ov" transform="translate(50 22) rotate(26) scale(0.90)" fill="oklch(0.468 0.078 150)" />
      <use href="#ov" transform="translate(50 14) rotate(-4) scale(0.78)" fill="oklch(0.412 0.072 151)" />
      <use href="#pot" fill="oklch(0.880 0.020 92)" /><use href="#rim" fill="oklch(0.925 0.016 92)" />
    </symbol>

    <symbol id="pl-peperomia" viewBox="0 0 100 76">
      <rect width="100" height="76" fill="oklch(0.945 0.010 92)" />
      <rect y="60" width="100" height="16" fill="oklch(0.895 0.014 86)" />
      <g stroke="oklch(0.520 0.056 146)" stroke-width="1.2" fill="none" stroke-linecap="round">
        <path d="M50 54 34 40" /><path d="M50 54 66 40" /><path d="M50 54 44 32" /><path d="M50 54 58 30" /><path d="M50 54 50 42" />
      </g>
      <circle cx="34" cy="40" r="7.4" fill="oklch(0.442 0.066 152)" />
      <circle cx="66" cy="40" r="7.0" fill="oklch(0.512 0.072 148)" />
      <circle cx="44" cy="31" r="6.6" fill="oklch(0.382 0.058 154)" />
      <circle cx="59" cy="29" r="6.2" fill="oklch(0.562 0.070 146)" />
      <circle cx="50" cy="43" r="6.0" fill="oklch(0.472 0.068 150)" />
      <use href="#pot" fill="oklch(0.648 0.090 47)" /><use href="#rim" fill="oklch(0.714 0.080 47)" />
    </symbol>

    <symbol id="pl-begonia" viewBox="0 0 100 76">
      <rect width="100" height="76" fill="oklch(0.900 0.022 62)" />
      <rect y="62" width="100" height="14" fill="oklch(0.848 0.026 58)" />
      <g stroke="oklch(0.470 0.050 146)" stroke-width="1.3" fill="none" stroke-linecap="round">
        <path d="M50 54 34 36" /><path d="M50 54 68 34" /><path d="M50 54 46 24" />
      </g>
      <use href="#lf" transform="translate(34 36) rotate(188) scale(0.78)" fill="oklch(0.352 0.052 156)" />
      <use href="#lf" transform="translate(68 34) rotate(-14) scale(0.74)" fill="oklch(0.402 0.058 152)" />
      <use href="#lf" transform="translate(46 24) rotate(-76) scale(0.68)" fill="oklch(0.318 0.046 158)" />
      <g fill="oklch(0.960 0.010 96)">
        <circle cx="20" cy="33" r="1.1" /><circle cx="27" cy="37" r="1.1" /><circle cx="24" cy="28" r="1" />
        <circle cx="78" cy="31" r="1.1" /><circle cx="84" cy="36" r="1" /><circle cx="76" cy="38" r="1" />
        <circle cx="42" cy="13" r="1.1" /><circle cx="48" cy="17" r="1" />
      </g>
      <use href="#pot" fill="oklch(0.800 0.012 80)" /><use href="#rim" fill="oklch(0.856 0.010 82)" />
    </symbol>

    <symbol id="pl-pothos" viewBox="0 0 100 76">
      <rect width="100" height="76" fill="oklch(0.932 0.014 88)" />
      <rect y="48" width="100" height="5" fill="oklch(0.848 0.022 84)" />
      <g stroke="oklch(0.478 0.060 148)" stroke-width="1.3" fill="none" stroke-linecap="round">
        <path d="M40 44C32 52 30 62 32 74" /><path d="M60 44C68 54 70 64 68 76" />
      </g>
      <g fill="oklch(0.452 0.070 150)">
        <ellipse cx="31" cy="54" rx="5" ry="3.6" transform="rotate(-24 31 54)" />
        <ellipse cx="30" cy="65" rx="4.6" ry="3.4" transform="rotate(-12 30 65)" />
        <ellipse cx="70" cy="56" rx="5" ry="3.6" transform="rotate(22 70 56)" />
        <ellipse cx="71" cy="68" rx="4.4" ry="3.2" transform="rotate(14 71 68)" />
      </g>
      <g fill="oklch(0.560 0.078 146)">
        <ellipse cx="37" cy="48" rx="4.4" ry="3.2" transform="rotate(-40 37 48)" />
        <ellipse cx="64" cy="49" rx="4.4" ry="3.2" transform="rotate(38 64 49)" />
      </g>
      <path d="M40 26h20l-2.6 14a3 3 0 0 1-3 2.6H45.6a3 3 0 0 1-3-2.6Z" fill="oklch(0.880 0.020 92)" />
      <rect x="37.6" y="22" width="24.8" height="5.4" rx="2" fill="oklch(0.925 0.016 92)" />
      <g fill="oklch(0.402 0.062 152)">
        <ellipse cx="42" cy="17" rx="5.4" ry="4" transform="rotate(-30 42 17)" />
        <ellipse cx="58" cy="16" rx="5.4" ry="4" transform="rotate(28 58 16)" />
        <ellipse cx="50" cy="12" rx="5" ry="3.8" />
      </g>
    </symbol>

    <symbol id="pl-sansevieria" viewBox="0 0 100 76">
      <rect width="100" height="76" fill="oklch(0.918 0.016 80)" />
      <rect y="60" width="100" height="16" fill="oklch(0.868 0.020 74)" />
      <use href="#bl" transform="translate(42 56) rotate(-9) scale(1.02)" fill="oklch(0.402 0.058 148)" />
      <use href="#bl" transform="translate(50 56) rotate(2) scale(1.18)" fill="oklch(0.332 0.048 152)" />
      <use href="#bl" transform="translate(58 56) rotate(11) scale(0.96)" fill="oklch(0.452 0.062 146)" />
      <use href="#bl" transform="translate(36 56) rotate(-19) scale(0.78)" fill="oklch(0.492 0.066 144)" />
      <use href="#bl" transform="translate(64 56) rotate(20) scale(0.72)" fill="oklch(0.372 0.054 150)" />
      <use href="#pot" fill="oklch(0.452 0.014 70)" /><use href="#rim" fill="oklch(0.520 0.014 72)" />
    </symbol>

    <symbol id="pl-fern" viewBox="0 0 100 76">
      <rect width="100" height="76" fill="oklch(0.940 0.012 100)" />
      <rect y="59" width="100" height="17" fill="oklch(0.890 0.016 94)" />
      <g stroke="oklch(0.452 0.066 150)" stroke-width="2.6" fill="none" stroke-linecap="round">
        <path d="M50 54C40 46 30 38 22 26" /><path d="M50 54C60 46 70 38 78 26" />
        <path d="M50 54C46 42 42 30 40 16" /><path d="M50 54C54 42 58 30 60 16" /><path d="M50 54 50 12" />
      </g>
      <g stroke="oklch(0.560 0.074 146)" stroke-width="2" fill="none" stroke-linecap="round">
        <path d="M50 54C42 48 32 44 24 40" /><path d="M50 54C58 48 68 44 76 40" />
      </g>
      <use href="#pot" fill="oklch(0.648 0.090 47)" /><use href="#rim" fill="oklch(0.714 0.080 47)" />
    </symbol>

    <symbol id="pl-dracaena" viewBox="0 0 100 76">
      <rect width="100" height="76" fill="oklch(0.908 0.018 70)" />
      <rect y="61" width="100" height="15" fill="oklch(0.858 0.022 64)" />
      <path d="M47 54 44 26" stroke="oklch(0.548 0.040 66)" stroke-width="2.6" fill="none" stroke-linecap="round" />
      <path d="M53 54 57 34" stroke="oklch(0.548 0.040 66)" stroke-width="2.4" fill="none" stroke-linecap="round" />
      <g stroke="oklch(0.392 0.060 150)" stroke-width="1.8" fill="none" stroke-linecap="round">
        <path d="M44 26 32 12" /><path d="M44 26 40 8" /><path d="M44 26 50 10" /><path d="M44 26 56 16" /><path d="M44 26 33 22" />
      </g>
      <g stroke="oklch(0.500 0.070 146)" stroke-width="1.6" fill="none" stroke-linecap="round">
        <path d="M57 34 68 22" /><path d="M57 34 62 18" /><path d="M57 34 71 32" />
      </g>
      <use href="#pot" fill="oklch(0.800 0.012 80)" /><use href="#rim" fill="oklch(0.856 0.010 82)" />
    </symbol>

    <symbol id="pl-euphorbia" viewBox="0 0 100 76">
      <rect width="100" height="76" fill="oklch(0.936 0.014 92)" />
      <rect y="60" width="100" height="16" fill="oklch(0.886 0.018 86)" />
      <rect x="44" y="10" width="12" height="46" rx="6" fill="oklch(0.472 0.070 150)" />
      <rect x="33" y="26" width="9.5" height="30" rx="4.75" fill="oklch(0.412 0.062 152)" />
      <rect x="57.5" y="22" width="9" height="34" rx="4.5" fill="oklch(0.532 0.074 148)" />
      <g stroke="oklch(0.352 0.050 154)" stroke-width="0.9" opacity="0.5">
        <path d="M50 12 50 54" /><path d="M37.7 28 37.7 54" /><path d="M62 24 62 54" />
      </g>
      <use href="#pot" fill="oklch(0.880 0.020 92)" /><use href="#rim" fill="oklch(0.925 0.016 92)" />
    </symbol>

    <symbol id="pl-rhaphidophora" viewBox="0 0 100 76">
      <rect width="100" height="76" fill="oklch(0.924 0.016 86)" />
      <rect y="60" width="100" height="16" fill="oklch(0.874 0.020 80)" />
      <rect x="47" y="8" width="6" height="46" rx="3" fill="oklch(0.560 0.040 66)" />
      <g stroke="oklch(0.478 0.058 148)" stroke-width="1.2" fill="none" stroke-linecap="round">
        <path d="M50 46 38 42" /><path d="M50 36 64 32" /><path d="M50 26 36 22" /><path d="M50 16 64 13" />
      </g>
      <g fill="oklch(0.412 0.066 152)">
        <path d="M38 42c-6-3-10-1-12 2 3 4 9 5 13 2Z" /><path d="M36 22c-6-3-10-1-12 2 3 4 9 5 13 2Z" />
      </g>
      <g fill="oklch(0.512 0.074 148)">
        <path d="M64 32c6-3 10-1 12 2-3 4-9 5-13 2Z" /><path d="M64 13c6-3 10-1 12 2-3 4-9 5-13 2Z" />
      </g>
      <use href="#pot" fill="oklch(0.452 0.014 70)" /><use href="#rim" fill="oklch(0.520 0.014 72)" />
    </symbol>

    <symbol id="pl-none" viewBox="0 0 100 76">
      <rect width="100" height="76" fill="oklch(0.944 0.010 85)" />
      <g fill="none" stroke="oklch(0.800 0.012 80)" stroke-width="1.1" stroke-linecap="round">
        <path d="M50 68c-11 0-19-9-19-22 0-14 9-26 19-35 10 9 19 21 19 35 0 13-8 22-19 22Z" />
        <path d="M50 68V13" /><path d="M50 29c-4-3-8-4-13-5M50 29c4-3 8-4 13-5" />
        <path d="M50 43c-5-3-11-5-17-5M50 43c5-3 11-5 17-5" />
        <path d="M50 57c-5-2-9-4-14-4M50 57c5-2 9-4 14-4" />
      </g>
    </symbol>

    <symbol id="pl-philodendron" viewBox="0 0 100 76">
      <rect width="100" height="76" fill="oklch(0.912 0.018 82)" />
      <rect y="61" width="100" height="15" fill="oklch(0.862 0.022 76)" />
      <g stroke="oklch(0.442 0.050 146)" stroke-width="1.3" fill="none" stroke-linecap="round">
        <path d="M50 54C42 46 36 39 30 32" /><path d="M50 54C58 47 65 41 71 35" /><path d="M50 54 50 28" />
      </g>
      <use href="#ar" transform="translate(30 32) rotate(-38) scale(0.95)" fill="oklch(0.372 0.060 150)" />
      <use href="#ar" transform="translate(71 35) rotate(34) scale(0.90)" fill="oklch(0.468 0.068 148)" />
      <use href="#ar" transform="translate(50 28) scale(1.05)" fill="oklch(0.322 0.054 152)" />
      <use href="#pot" fill="oklch(0.700 0.030 60)" /><use href="#rim" fill="oklch(0.760 0.026 62)" />
    </symbol>

  </defs>
</svg>
